# xmcd
#
# Track frame offsets:
#	150
#	17008
#	34275
#	49033
#	70138
#	86338
#	107033
#	121969
#	136514
#	150973
#	165270
#	184814
#
# Disc length: 2818 seconds
# Revision: 0
# Processed by: cddbd v1.5.2PL0 Copyright (c) Steve Scherf et al.
# Submitted via: dBpowerAMP V12.0
#
DISCID=870b000c
DTITLE=Various Artist - Ladies and Gentlemen
DYEAR=2016
DGENRE=Country
TTITLE0=Infamous Stringdusters feat. Joan Osborne - Listen
TTITLE1=Infamous Stringdusters feat. Lee Ann Womack - I Believe
TTITLE2=Infamous Stringdusters feat. Sarah Jarosz - Won't Be Long
TTITLE3=Infamous Stringdusters feat. Joss Stone - Have a Little Faith
TTITLE4=Infamous Stringdusters feat. Sara Watkins - See How Far You've Come
TTITLE5=Infamous Stringdusters feat. Celia Woodsmith - Old Whiskey Bottle
TTITLE6=Infamous Stringdusters feat. Nicki Bluhm - Still the One
TTITLE7=Infamous Stringdusters feat. Claire Lynch - Ladders in the Sky
TTITLE8=Infamous Stringdusters  feat. Mary Chapin Carpenter - Coming Back to You
TTITLE9=Infamous Stringdusters feat. Aoife O'Donovan - Run to Heaven
TTITLE10=Infamous Stringdusters feat. Abigail Washburn - Rock and Roll
TTITLE11=Infamous Stringdusters feat. Jennifer Hartswick - Hazosphere
EXTD=
EXTT0=
EXTT1=
EXTT2=
EXTT3=
EXTT4=
EXTT5=
EXTT6=
EXTT7=
EXTT8=
EXTT9=
EXTT10=
EXTT11=
PLAYORDER=
